<?xml version="1.0" encoding="utf-8"?>
<!-- Generator: Adobe Illustrator 25.4.1, SVG Export Plug-In . SVG Version: 6.00 Build 0)  -->
<svg version="1.1" id="Layer_1" xmlns="http://www.w3.org/2000/svg" xmlns:xlink="http://www.w3.org/1999/xlink" x="0px" y="0px"
	 viewBox="0 0 32 32" style="enable-background:new 0 0 32 32;" xml:space="preserve">
<style type="text/css">
	.st0{fill:url(#SVGID_1_);}
	.st1{fill:#FFFFFF;}
</style>
<g>
	<linearGradient id="SVGID_1_" gradientUnits="userSpaceOnUse" x1="0" y1="16" x2="32" y2="16">
		<stop  offset="0" style="stop-color:#056938"/>
		<stop  offset="0.2071" style="stop-color:#096F39"/>
		<stop  offset="0.4758" style="stop-color:#157F3D"/>
		<stop  offset="0.7773" style="stop-color:#299A44"/>
		<stop  offset="1" style="stop-color:#3BB24A"/>
	</linearGradient>
	<circle class="st0" cx="16" cy="16" r="16"/>
	<g>
		<path class="st1" d="M15.68,19.58c0.16,0.53,0.52,0.9,1.05,1.09c0.22,0.08,0.45,0.12,0.69,0.12h0c1.22,0,2.47-1.01,3.3-1.86
			l0.15-0.16c0.3,0.09,0.62,0.14,0.96,0.14c0.97,0,1.9-0.4,2.44-1.05c0.44-0.53,0.61-1.2,0.48-1.92c-0.11-0.61-0.44-0.74-0.69-0.74
			c-0.53,0-1.19,0.56-1.63,0.98c-0.27,0.26-0.54,0.53-0.79,0.79c-0.79,0.81-1.53,1.58-2.61,1.97c-0.28,0.1-0.54,0.15-0.79,0.15
			c-0.59,0-1.04-0.3-1.25-0.84c2.01-0.83,4.07-2.93,4.93-5.02c0.12-0.3,0.48-1.32,0.07-1.98c-0.19-0.31-0.51-0.48-0.95-0.51
			c-1.33-0.1-2.57,1.62-3.23,2.53l-0.06,0.09C17.19,14.11,15.08,17.63,15.68,19.58z M16.89,16.87c0.21-1.69,1.29-3.5,2.56-4.26
			c0.22-0.13,0.44-0.2,0.66-0.2c0.2,0,0.4,0.06,0.57,0.18c0.22,0.14,0.34,0.32,0.36,0.55c0.05,0.57-0.53,1.35-1.09,1.89
			C19.23,15.71,18.14,16.57,16.89,16.87z M22.26,17.37c0.22-0.19,0.42-0.34,0.62-0.46l0.22-0.06c0.17,0,0.28,0.13,0.34,0.23
			l0.05,0.34C23.08,17.5,22.62,17.49,22.26,17.37z"/>
		<path class="st1" d="M27.87,7.06c-0.44,0.41-0.97,0.99-0.97,1.39v10.09l0.21-0.17c0.1-0.08,1-0.83,1-1.42V6.83L27.87,7.06z"/>
		<path class="st1" d="M16.64,14.63l0.02-0.03V6.67L16.44,6.9l-0.03,0.03c-0.64,0.6-0.96,1.06-0.96,1.38v9.12l0.25-0.84
			C15.91,15.92,16.34,15.08,16.64,14.63z"/>
		<path class="st1" d="M18.72,23.84c0.97,0,1.75-0.99,2.02-1.98c0.21-0.78,0.07-1.43-0.39-1.7l-0.43-0.11
			c-0.79,0-1.81,0.93-2.48,1.55l-0.39,0.35c-1.13,0.9-2.01,1.17-2.6,0.79c-0.59-0.38-0.59-2.34-0.57-2.59l0-0.06L13.82,20h-0.06
			c-0.2,0-1,1.06-1.06,1.34c-0.12,0.58-0.44,0.92-0.86,0.92c-0.23,0-0.46-0.1-0.67-0.3c-0.54-0.5-0.59-1.77-0.26-2.42
			c0.16-0.31,0.17-0.4,0.12-0.47L10.9,19c-0.22,0-0.75,0.73-0.8,0.82c-0.17,0.3-0.4,0.46-0.66,0.46c-0.47,0-0.94-0.49-0.98-1.01
			c-0.04-0.57,0.2-1.22,0.42-1.85c0.11-0.31,0.22-0.61,0.29-0.89c0.14-0.54,0.1-0.95-0.1-1.22c-0.18-0.23-0.47-0.34-0.86-0.34
			c-0.68,0-1.55,0.35-2.08,0.65c-1.13,0.63-1.88,1.96-2.17,2.9c-0.11,0.35-0.07,0.65,0.11,0.9c0.46,0.63,1.71,0.7,2.22,0.7
			c0.24,0,0.48-0.01,0.66-0.04c0.16-0.02,0.31-0.18,0.45-0.38c-0.14,0.58-0.22,1.46,0.12,1.91C7.7,21.86,8,21.95,8.39,21.88
			c0.47-0.09,0.9-0.31,1.29-0.67c-0.09,0.82-0.12,1.95,0.34,2.48c0.25,0.29,0.6,0.38,1.05,0.26c0.6-0.16,1.15-0.55,1.64-1.16
			c0.03,0.44,0.17,0.95,0.66,1.55c0.17,0.21,0.41,0.31,0.71,0.31c0.74,0,1.68-0.63,2.13-0.94l0.02-0.01
			c0.32-0.22,0.63-0.48,0.92-0.74l0.03-0.02C17.66,23.53,18.18,23.84,18.72,23.84L18.72,23.84z M19.71,22.26
			c-0.31,0.08-0.63-0.05-0.98-0.39l0.23-0.08c0.22-0.05,0.42,0,0.57,0.13L19.71,22.26z M7.73,18.41l-0.42,0.03
			c-0.98,0-1.98-0.36-2.06-0.74c-0.05-0.25,0.31-0.56,0.98-0.85c0.15-0.06,0.66-0.27,1.13-0.27c0.44,0,0.67,0.18,0.7,0.54
			c0.03,0.39-0.09,0.85-0.25,1.29H7.75L7.73,18.41z"/>
		<path class="st1" d="M6.32,13.88l0.95,0.59l0.04,0.02h0.04c0.17,0,0.43-0.41,0.55-0.63l0.61,0.38l0.04,0.02h0.04
			c0.23,0,0.63-0.75,0.66-0.88l-0.06-0.21l-0.95-0.59L8.2,12.56H8.16c-0.17,0-0.43,0.41-0.55,0.63l-0.6-0.38l-0.04-0.02H6.93
			c-0.23,0-0.63,0.75-0.67,0.88L6.32,13.88z"/>
		<path class="st1" d="M26.55,14.77l-0.01-5.79L26.3,9.21c-0.44,0.41-0.98,0.99-0.97,1.39l0.02,8.43c0.01,3.04-2.32,5.22-5.66,5.3
			c-0.43,0.01-0.73,0.66-0.99,1.37l-0.05,0.12l-0.07,0.18l0.19,0c4.42-0.11,7.11-3.94,7.73-7.45c0.15-0.85,0.11-1.76,0.07-2.65
			C26.57,15.51,26.55,15.14,26.55,14.77z"/>
		<path class="st1" d="M12.87,14.64c-0.22,0.22-0.47,0.44-0.75,0.68l-0.17,0.33l0.16,0.1l0.25-0.08c0.34-0.17,0.7-0.41,1.02-0.68
			c0.42-0.37,0.86-0.76,1.26-1.19l0.08-0.23l-0.15-0.1l-0.08-0.01c-0.19-0.01-0.77-0.05-0.91-0.23l-0.02-0.1
			c0.05-0.21,0.38-0.41,0.62-0.56l0.21-0.14c0.01,0,0.54-0.4,0.48-0.59l-0.14-0.1l-0.02,0c-0.3,0.04-0.6,0.26-0.85,0.45l-0.12,0.09
			l-0.34,0.24c-0.49,0.34-1.01,0.7-1.34,1.18c-0.14,0.19-0.17,0.37-0.1,0.52C12.07,14.48,12.45,14.58,12.87,14.64z"/>
		<path class="st1" d="M10.14,17.92l0.95,0.59l0.04,0.02l0.04,0c0.23,0,0.63-0.75,0.67-0.88l-0.06-0.21l-0.95-0.59l-0.04-0.02h-0.04
			c-0.23,0-0.63,0.75-0.66,0.88L10.14,17.92z"/>
		<path class="st1" d="M27.03,8.45v9.82c0.26-0.21,0.95-0.86,0.95-1.32V7.13C27.92,7.19,27.03,7.99,27.03,8.45z M20.29,20.27
			c-0.89-0.53-2.6,1.34-3.15,1.78c-0.67,0.53-1.88,1.36-2.75,0.8c-0.69-0.45-0.64-2.62-0.63-2.71c0.01-0.09-0.87,0.89-0.94,1.23
			c-0.22,1.07-1.08,1.31-1.75,0.69c-0.59-0.55-0.64-1.89-0.29-2.57c0.46-0.88-0.43,0.11-0.59,0.39c-0.61,1.08-1.82,0.29-1.88-0.61
			c-0.06-0.89,0.5-1.93,0.72-2.78c0.53-2.07-1.72-1.4-2.86-0.77c-1,0.56-1.78,1.76-2.11,2.83C3.62,20,6.11,20.06,6.93,19.94
			c0.4-0.06,0.87-1.41,0.82-1.41c-1.4,0.2-4.14-0.69-1.56-1.81c0.63-0.27,1.93-0.6,2.01,0.38c0.06,0.75-0.41,1.68-0.62,2.39
			c-0.2,0.67-0.49,2.51,0.79,2.26c0.61-0.12,1.1-0.46,1.5-0.9c-0.1,0.65-0.46,3.41,1.18,2.97c0.75-0.2,1.34-0.76,1.79-1.43
			c-0.02,0.48,0,1.09,0.63,1.86c0.61,0.75,2.14-0.3,2.68-0.67c0.36-0.25,0.7-0.55,1.04-0.84C19.39,25.66,21.67,21.09,20.29,20.27z
			 M18.93,21.66c0.26-0.05,0.49,0,0.69,0.17c0.16,0.17,0.23,0.42,0.25,0.51c-0.52,0.22-0.98-0.11-1.34-0.5L18.93,21.66z
			 M16.77,20.54c1.39,0.5,2.97-0.81,3.85-1.71l0.21-0.22c1.77,0.58,4.18-0.51,3.78-2.66c-0.26-1.39-1.64-0.13-2.11,0.31
			c-1.1,1.03-1.97,2.25-3.45,2.78c-1.09,0.4-1.92,0-2.21-0.9c2.12-0.84,4.14-3.02,4.94-4.98c0.35-0.86,0.52-2.22-0.77-2.32
			c-1.3-0.1-2.53,1.67-3.18,2.56C16.92,14.7,14.22,19.62,16.77,20.54z M22.82,16.8c0.31-0.17,0.57-0.05,0.73,0.23l0.04,0.5
			c-0.46,0.11-1.05,0.1-1.53-0.11C22.31,17.2,22.54,16.97,22.82,16.8z M19.38,12.5c0.45-0.26,0.94-0.3,1.37-0.02
			c1.07,0.7-0.18,2.12-0.72,2.64c-0.9,0.86-2.04,1.66-3.28,1.9C16.91,15.29,18.01,13.32,19.38,12.5z M26.41,9.29
			c-0.07,0.06-0.95,0.86-0.95,1.32c0.01,2.81,0.01,5.62,0.02,8.43c0.01,3.28-2.61,5.35-5.78,5.43c-0.46,0.01-0.82,1.16-0.92,1.41
			c4.08-0.1,6.92-3.49,7.61-7.34c0.21-1.2,0.04-2.54,0.04-3.76C26.42,12.95,26.41,11.12,26.41,9.29z M16.54,6.99
			c-0.06,0.06-0.95,0.86-0.95,1.32v8.25c0.2-0.66,0.62-1.51,0.95-2V6.99z M7.85,13.68c0.24,0.15,0.48,0.3,0.72,0.45l0.55-0.85
			c-0.32-0.2-0.63-0.4-0.95-0.59c-0.07-0.04-0.39,0.42-0.51,0.68c-0.24-0.15-0.48-0.3-0.72-0.45l-0.55,0.85
			c0.32,0.2,0.63,0.4,0.95,0.59C7.41,14.4,7.72,13.94,7.85,13.68z M11.71,17.56c-0.32-0.2-0.63-0.4-0.95-0.59l-0.55,0.85
			c0.32,0.2,0.63,0.4,0.95,0.59L11.71,17.56z M13.14,14.54c-0.29,0.31-0.61,0.6-0.93,0.88c-0.22,0.19-0.16,0.26,0.09,0.14
			c0.35-0.17,0.69-0.41,0.99-0.67c0.43-0.38,0.86-0.76,1.24-1.18l0.02-0.12c-0.23-0.02-1.22-0.04-1.12-0.49
			c0.08-0.34,0.63-0.6,0.88-0.77l0.41-0.45c-0.31,0.04-0.66,0.33-0.9,0.51c-0.56,0.41-1.25,0.81-1.66,1.39
			C11.71,14.39,12.67,14.5,13.14,14.54z"/>
	</g>
</g>
</svg>
