<?xml version="1.0" encoding="utf-8"?>
<!-- Generator: Adobe Illustrator 25.4.1, SVG Export Plug-In . SVG Version: 6.00 Build 0)  -->
<svg version="1.1" id="Layer_1" xmlns="http://www.w3.org/2000/svg" xmlns:xlink="http://www.w3.org/1999/xlink" x="0px" y="0px"
	 viewBox="0 0 1080 1080" style="enable-background:new 0 0 1080 1080;" xml:space="preserve">
<style type="text/css">
	.st0{fill:url(#SVGID_1_);}
	.st1{fill:#FFFFFF;}
	.st2{fill:url(#SVGID_00000155825429926638607050000002373017383773903522_);}
	.st3{fill:url(#SVGID_00000020371378769989497430000011585365206235262137_);}
	.st4{fill:url(#SVGID_00000152982530527502916470000013917189062645791130_);}
	.st5{fill:url(#SVGID_00000140721906646382578820000004897296977152112051_);}
	.st6{fill:url(#SVGID_00000035509410271529143540000001539907918711185807_);}
	.st7{fill:url(#SVGID_00000128459807505946915600000012027251440657986188_);}
	.st8{fill:url(#SVGID_00000122710368493955726210000014427748392523573147_);}
	.st9{fill:url(#SVGID_00000041284604909465693490000004024943470390479036_);}
	.st10{fill:url(#SVGID_00000180337859985267040850000011938107181595533954_);}
	.st11{fill:url(#SVGID_00000039848946089812516460000017061707832873377209_);}
	.st12{fill:url(#SVGID_00000127735209438794512350000017780100932148242068_);}
	.st13{fill:url(#SVGID_00000100371359210847483480000006916978798164251833_);}
	.st14{fill:url(#SVGID_00000134955620519697578120000008809727457582151814_);}
	.st15{fill:url(#SVGID_00000062878206948339105400000002667633140602075281_);}
	.st16{fill:url(#SVGID_00000069394094597828853610000015090671897443397516_);}
	.st17{fill:url(#SVGID_00000010997633561237484350000009343867939528095656_);}
	.st18{fill:url(#SVGID_00000040576633138864612870000002704894051870879420_);}
	.st19{fill:url(#SVGID_00000114759901680966085700000011443073357722080386_);}
</style>
<g>
	<linearGradient id="SVGID_1_" gradientUnits="userSpaceOnUse" x1="0" y1="540" x2="1080" y2="540">
		<stop  offset="0" style="stop-color:#056938"/>
		<stop  offset="0.2071" style="stop-color:#096F39"/>
		<stop  offset="0.4758" style="stop-color:#157F3D"/>
		<stop  offset="0.7773" style="stop-color:#299A44"/>
		<stop  offset="1" style="stop-color:#3BB24A"/>
	</linearGradient>
	<circle class="st0" cx="540" cy="540" r="540"/>
	<g>
		<path class="st1" d="M149.6,719.06c-16.73-31.25-28.86-65.62-36.06-102.16c-6.96-34.92-9.08-71.51-6.3-108.73
			c1.5-18.16,4.18-36.34,7.97-54.05c4.49-19.72,9.51-36.84,15.38-52.38c12.88-34.82,30.32-66.82,51.84-95.12l3.33,2.2
			c-18.13,31.94-32.56,64.62-42.9,97.15c-10.77,34.22-17.56,69.01-20.14,103.4c-1.43,17.04-1.82,34.77-1.17,52.72
			c0.45,16.05,2,33.25,4.76,52.61c5.04,33.92,14.11,68.48,26.94,102.72L149.6,719.06z M930.5,718.83l-3.64-1.65
			c12.77-34.24,21.78-68.69,26.79-102.4c2.77-19.55,4.33-36.69,4.75-52.39c0.68-17.62,0.31-35.3-1.09-52.56
			c-2.54-34.32-9.24-69-19.91-103.11c-10.21-32.39-24.51-65-42.52-96.92l3.34-2.18c21.36,28.24,38.66,60.18,51.44,94.92
			c5.84,15.59,10.82,32.67,15.21,52.2c3.7,17.2,6.36,35.32,7.91,53.88c2.75,37.18,0.61,73.64-6.34,108.39
			C959.25,653.45,947.15,687.72,930.5,718.83z"/>
		<path class="st1" d="M267.08,796.63l7.67-6.76c-27.22-26.28-47.58-58.84-59.87-78.88c-4.78,3.33-8.42,5.82-8.42,5.82l3.62,5.24
			l-5.89,4.07l3.94,5.71l3.81,6.49l-0.86,7.36l-3.75,5.77c-3.33-5.07-7.63-8.31-12.94-9.71c-5.49-1.55-10.66-0.65-15.53,2.71
			c-4.06,2.8-6.46,6.79-7.21,11.96c-0.76,5.17,0.26,9.79,3.07,13.84c1.93,2.81,5.48,5.61,10.64,8.4l7.01-8.85
			c-4.2-2.62-6.71-4.53-7.53-5.71l-1.19-5.32l2.42-4.5l6.59-0.26l5.73,4.5c2.76,3.99,3.94,10.3,3.52,18.9
			c-0.47,8.92-2.58,14.67-6.32,17.25l-6.27,4.33l6.4,9.26l50.04-34.57l6.8,8.64l-44.57,39.24l7.45,8.45l45.65-40.2L267.08,796.63z
			 M211.85,783.41c1.89-8.34,2.22-15.18,1.02-20.54c6.45-4.91,9.64-12.57,9.56-22.96c0,0,4.7,9.74,16.93,24.5
			C233.47,768.56,211.85,783.41,211.85,783.41z"/>
		<path class="st1" d="M316.71,826.93c-3.99-3.14-8.45-4.7-13.36-4.71c-5.4,0.01-9.64,1.97-12.73,5.91l-2.17,7.83l3.89,7.1
			l2.74,1.28l9.63-3.42l-4.21-4.03l-0.3-3.12l5.44-1.22l5.17,2.61l3.98,7.09l-2.09,7.82l-10.04,3.96l-1.76-1.81
			c-2.56-2.02-5.96-2.85-10.18-2.5l-3.45,11.02l7.82,2.38l3.16,6.02l-2.57,6.86l-7.21,3.02l-8.27-3.17
			c-9.96-7.82-12.06-22.38-6.32-43.69l-10.59,2.82c-5.68,23.2-1.57,40.24,12.32,51.15c4.35,3.42,9.42,4.94,15.2,4.56
			c5.78-0.37,10.39-2.73,13.8-7.09c4.35-5.54,5.88-11.91,4.58-19.1c4.74-0.13,8.81-2.38,12.23-6.73c3.73-4.77,5.09-10.17,4.03-16.19
			C324.39,835.55,321.49,830.67,316.71,826.93z"/>
		<path class="st1" d="M486.87,912.41c-2.78-7.59-7.18-11.93-13.23-13.04c-4.69-0.86-9.44,0.87-14.22,5.16
			c-2.54-5.93-5.74-9.12-9.93-10.56l-23.61-7.15l-2.06,5.3c-1.88-4.8-4.66-7.9-8.33-9.33c-5.16-2-10.18-0.77-15.08,3.67
			c-1.61-6.96-4.7-10.63-8.88-13.44l-12.31-6.89c3.57-6,8.03-8.76,14.25-9.69c5.64-0.81,11.69,0.47,18.13,3.84
			c7.93,4.14,15.99,13.33,24.21,27.55l9.33-4.35c-4.83-8.6-8.9-14.92-12.18-18.95c-4.82-6.03-10.24-10.62-16.3-13.79
			c-9.21-4.82-18.05-6.53-26.48-5.14c-9.23,1.59-16.42,6.89-21.57,15.92l-7.58-3.63l-4.76,9.26l7.6,3.44l-28.1,53.68l10.16,5.33
			l28.3-53.93c0,0,18.92,8.12,15.99,17.58c-2.04,6.59-5.72,8.88-9.67,7.34c-1.77-0.68-3.63-3.73-5.6-9.12l-4.77,12.3
			c0.79,4.45,3.16,7.45,7.12,8.98c4.73,1.84,9.53,0.89,14.39-2.84c1.44,5.93,3.82,9.53,7.14,10.82l11.08-0.58l4.64-11.97
			c-4.94,1.42-8.04,1.87-9.31,1.39c-3.68-1.43-4.42-4.97-2.22-10.62l4.17-4.31l5.98-0.16l4.81,6.15l-0.36,8.78l-17.01,43.86
			l10.5,4.07l22.06-56.92l15.48,5.55l2.17,7.79l-2.71,4.54l-4.78,1.39l-5.56-4.02l-2.12,11.63c1.11,3.21,4.05,5.24,8.83,6.11
			c4.4,0.79,7.89,0.01,10.48-2.37l8.2,5.76l9.13-1.92l2.3-12.64l-5.86,1.36l-3.77-2.65l-0.94-4.79l2.58-4.04l4.38-1.28l6.95,6.11
			c2.03,3.22,3.61,6.98,4.75,11.27c5.09-3.08,9.18-5.92,12.25-8.52l1.16,7.6c-0.76,4.17-3.98,7.6-9.67,10.26l-4.54-2.22l-9.29,1.78
			l1.73,12.1l6.4-0.91l5.51,3.08l1.74,5.4c-0.8,4.4-3.49,7.53-8.06,9.39c-3.99,1.59-8.41,1.95-13.25,1.07
			c-6.72-1.22-12.43-4.99-17.13-11.31c-3.29-4.37-6.85-11.26-10.69-20.66l-8.31,6.35c2.84,8.53,6.72,16.05,11.61,22.56
			c6.15,8.12,12.66,12.81,19.51,14.05c9.02,1.64,16.62,1.59,22.79-0.13c8.28-2.35,13.19-7.74,14.72-16.16
			c1.17-6.49-0.07-12.11-3.76-16.86c6.47-2.98,10.46-8.61,11.97-16.89c1.21-6.71-1.91-14.97-9.37-24.81L486.87,912.41z"/>
		<path class="st1" d="M807.08,816.31c-8.56-0.52-15.73,1.71-21.53,6.7c-3.74,3.22-6.13,6.93-7.19,11.16
			c-1.33,4.84-0.39,9.13,2.82,12.86c2.57,2.99,5.96,4.72,10.18,5.2c4.2,0.48,8.02-0.67,11.46-3.42l-1.83-11.18
			c-4.56,3.53-7.9,4.06-10.03,1.59l2.13-7.84c3.63-3.12,8.16-4.41,13.57-3.83c5.42,0.58,9.67,2.66,12.79,6.27
			c3.5,4.07,5.01,8.71,4.56,13.94c-0.46,5.23-2.73,9.61-6.82,13.12c-6.26,5.4-19,4.36-38.17-3.13l0.58,11.32
			c10.55,3.78,18.6,5.81,24.17,6.11c8.66,0.42,16.23-2.16,22.72-7.75c6.78-5.83,10.12-12.65,10-20.44
			c-0.15-7.25-3.18-14.32-9.11-21.2C822.4,819.98,815.63,816.83,807.08,816.31z"/>
		<path class="st1" d="M681.26,887.19l-3.36-9.99c-39.01,15.47-76.01,22.76-102.26,26.19l-38.37,3.07l0.81,10.2
			c0,0,10.78-0.01,28.44-1.86c-5.1,0.61-9.58,2.08-13.4,4.53c-5.27,3.39-7.69,7.88-7.24,13.47l4.63,8.69
			c2.8,2.17,6.2,3.14,10.21,2.89l6.16-9.9c-5.31,0.2-8.04-0.76-8.21-2.86c-0.3-3.75,3.24-5.92,10.66-6.52
			c4.15-0.33,7.77,0.48,10.85,2.42l5.07,8.57c0.38,4.74-3.04,8.64-10.24,11.72c-5.22,2.23-10.7,3.58-16.45,4.04
			c-2.04,0.16-6.07,0.11-12.1-0.17l5.95,14.46c6.43-0.36,14.6,1.11,24.53,4.43c8.83,3.02,16.64,6.61,23.44,10.79l6.66-8.06
			c-10.46-6.24-20.62-11.02-30.45-14.34c14.73-5.96,21.67-14.31,20.81-25.03c-0.53-6.65-4.09-11.76-10.69-15.34
			c-5.53-3.14-11.62-4.44-18.25-3.99l9.14-1.1l26.15-3.68l11.37,59.74l11.06-2.1l-11.37-60.42l9-1.9
			c12.63,2.54,21.35,9.69,24.22,18.8c0.85,2.67,0.77,6.35-0.22,11.03c-1.11,5.04-2.79,7.91-5.03,8.61
			c-2.32,0.73-6.11-0.1-11.39-2.49l3.71,11.82c5.41,1.48,9.41,1.81,12.02,0.98c5.08-1.59,8.6-5.44,10.59-11.55
			c0.26-0.95,1.17-6.4,2.75-16.35c0.95-5.79,2.75-9.09,5.36-9.91l4.38,0.83l2.96,3.9l9.55,30.37l10.74-3.38l-18.22-58.32
			L681.26,887.19z M661.38,905.91l-7.09,6.41c-3.05-4.84-8.09-8.73-13.39-11.35l23.58-7.61l4.21,13.35L661.38,905.91z"/>
		<path class="st1" d="M873.38,717.77l-8.36-5.9c-6.79,14.67-35.35,50.03-35.35,50.03c-4.33,5.25-8.98,10.67-13.96,16.21l-7.02,7.67
			c-7.66,8.18-15.95,16.45-24.78,24.55l-20.1,17.31l-9.88,7.63c0,0-19.09,14.38-35.3,22.61l5.86,11.42
			c-4.91-2.42-9.08-3.73-12.51-3.93c-4.01-0.32-8.28,0.67-12.81,2.99c-8.92,4.59-14.6,11.11-18.02,20.37l-0.91,3.4l6.67,6.03
			l6.82-1.14l4.13,4.32c1.11,2.16,1.68,5.44,1.73,9.84l8.22,4.85c8.47-12.36,16.06-22.73,22.75-31.11c2.5,1.7,5.96,6.83,10.34,15.41
			c1.42,2.77,3.25,6.47,5.5,11.12c2.43,5.15,3.95,8.29,4.54,9.44l10.01-5.14l-27.66-53.91l9.79-6.16l33.32,49.72l9.35-6.27
			L752.4,849.3l14.34-10.78c9.5-7.54,18.61-15.51,27.22-23.64l20.24-19.97l44.86,41.06l7.61-8.3l-44.87-41.06l17.55-20.68
			c10.01-12.25,18.21-23.36,24.17-32.17l14.72,10.4c-4.07,0.26-6.99,1.63-8.74,4.1c-2.84,4.02-3.12,9.61-0.84,16.77
			c-7.34,0.01-12.67,2.35-15.99,7.05c-3.67,5.19-4.95,10.55-3.85,16.1c1.09,5.54,4.23,10.15,9.43,13.83
			c5.08,3.58,10.5,4.96,16.3,4.13c5.78-0.83,10.47-3.79,14.05-8.86l2.22-3.73l-7.24-9.85l-2.34,3.92
			c-4.85,6.87-9.85,8.48-14.99,4.86c-6.19-4.37-7.6-8.95-4.23-13.71l6.35-2.68l8.75,2.78l7.09-10.03l-4.9-6.88l0.25-6.43
			c3.54-5.02,10.69-3.72,21.45,3.88l5.12,3.9l6.11,4.86l6.29-8.92l-49.04-34.65L873.38,717.77z M706.99,897.19l-1.21-3.6
			c-1.97-3.84-5.33-6-10.08-6.45c2.83-4.44,5.91-7.5,9.21-9.2l7.71-1.27l7.86,2.74L706.99,897.19z"/>
		<path class="st1" d="M410.16,180.61c-1.12-2.7-3.23-6.45-6.32-11.27c-3.09-4.81-5.27-8.49-6.27-11.15
			c-1.74-4.6-2.1-15.19-0.69-18.31c2.42-5.3,6.66-5.36,6.66-5.36l-4.42-10.67l-8.08,5.33c-1.52,1.99-3.12,5.12-3.83,9.1
			c-9.64-5.66-22.39-5.03-33.64-0.53c-9.94,3.97-16.39,6.55-22.25,10.59c-1.57,1.28-7.72,5.4-12.79,11.57
			c-1.95,2.37-8.05,13.96-8.33,19.35l-7.06-4.51c-4.87-2.06-11.49-1.64-15.72,0.48l-7.74,12.06c-5.91-0.95-11.49,0.79-16.74,5.24
			c-5.39,4.56-8.32,9.75-8.82,15.57c-4.84-1.32-9.48-0.1-13.93,3.67c-5.08,4.29-7.55,10.03-7.4,17.23l-4.81,0.72l-0.82,6.75
			l5.86,5.71l5.86,5.71c3.93,4.64,7.19,5.87,9.79,3.67l0.22-7.47c-3.24-3.82-5.11-7.93-5.65-12.34c-0.61-4.87,0.75-8.72,4.09-11.54
			c3.59-3.03,8.16-1.26,13.73,5.33c5.05,5.97,6.94,13.29,5.66,21.95c-1.26,8.67-4.99,15.63-11.18,20.86
			c-8.67,7.32-19.98,8.19-33.93,2.6c-11.74-4.71-21.81-12.04-30.22-21.99c-7.21-8.53-10.92-16.87-11.08-24.98l-1.31-3.99l-7.43-0.88
			c-2.89,3.62-2.35,9.9,1.61,18.86c3.06,6.76,6.63,12.55,10.71,17.38c9.94,11.76,22.02,20.34,36.24,25.73
			c17.16,6.62,31.35,5.19,42.55-4.28c10.52-8.9,15.1-21.69,13.75-38.37c9.93-4.57,17.77-7.48,23.5-8.72
			c3.99,1.83,6.29,2.85,6.9,3.08l7.03-0.53l-0.07-6.48l-2.43-2.31l-2.44-2.33l-3.54-5.12l-3.53-5.13c-5.85-7.8-8.95-12.02-9.3-12.69
			c-2.84-5.24-2.53-10.41-0.02-12.53l6.46-1.84c5.9,2.22,11.01,7.01,15.32,14.35l13.04,22.8l6.94,2.33l1.61-7.23l-4.05-6.44
			l-5.06-8.24c-6-10.48-8.02-17.95-6.44-22.52l3.93-9.53c2.35-4.01,7.61-9.29,9.23-10.68c8.15-5.84,14.65-8.37,23.8-12.12
			c10.47-4.3,21.68-2.78,28.85,3.49l0.46,7.14l-10.86,0.82c-4.26,1.77-6.98,5.18-8.13,10.21c-8.26-4.9-15.58-6.04-21.94-3.4
			c-9.43,3.92-10.88,13.77-4.32,29.57l4.59,7.57l6.96,4.09l2.87-6.43l-2.67-4.53l-2.62-4.42c-1.71-4.1-2.7-6.92-2.98-8.46l2.42-7.17
			l10.37,0.89c0.67,0.33,3.51,2.41,8.51,6.22l6.89,2.34c2.17-0.9,2.76-3.55,1.76-7.97c-1-4.41-0.15-7.18,2.54-8.3
			c4.42-1.83,8.67-0.57,12.76,3.79c2.78,3.94,5.57,7.92,8.38,11.93l6.61,3.58L410.16,180.61z M295.58,219.69
			c-9.38,2.22-16.91,4.79-22.62,7.7l-4.02-6.27c-2.96-4.37-4.51-7.77-4.65-10.19c-0.11-3.28,1.81-6.6,5.78-9.95
			c3.16-2.67,7.26-3.4,12.32-2.18C288.08,208.06,292.47,215.02,295.58,219.69z"/>
		<path class="st1" d="M880.17,257.94c0.57-4.24-0.46-7.68-3.11-10.31c-3.09-3.09-7.47-5.29-13.15-6.61
			c-0.23-2.03-1.38-6.93-3.77-10.92c-2.5-4.17-6.32-8.13-10.96-10.46c-6.83-3.45-15.5-1.59-20.63,0.06l1.68-8.2
			c0-1.79-0.52-4.67-1.54-8.66l-1.91-2.7c-4.5-3.34-9.81-4.27-15.93-2.76c-6.66-13.2-14.3-22.49-21.49-28.29
			c-11.06-8.93-30.76-9.09-36.81-6.63l-4.32-7.95l5.63-7.97c2.97-6.3,2.35-12.42-1.85-18.34c-3.37-4.63-8.22-8.43-14.53-11.4
			c-3.23-1.52-7.65-2.52-13.23-3c-6.68-0.63-10.63,0.33-11.84,2.89l1.97,7.24l3.05,0.38c7.52,0.39,12.64,1.22,15.35,2.49l9.01,5.98
			l4.03,8.58c-0.69,1.45-3.5,4.19-8.42,8.19l-10.44,2.19c-1.43-3.99-3.18-7.9-4.94-9.46c-2.56-2.27-6.26-4.77-11.91-5.49
			c-6.99-0.88-17.48,2.04-21.74,5.37l-1.24-8.28c-0.62-1.68-2.22-7.49-7.44-10.2l-8.14-1.5l-7.69,2.82
			c-2.56-4.28-7.33-7.17-14.31-8.67c-7.77-1.67-14.94-0.48-21.53,3.57c-2.92-6.85-8.81-11.1-17.58-13.11
			c-3.63-0.84-18.07-2.27-29.67,1.36l-4.21-1.13c-6.31-0.25-11.63,1.87-15.94,6.33c-1.94-4.21-5.18-7.79-9.69-10.76
			c-4.51-2.97-9.03-4.54-13.57-4.72c-6-0.22-11.66,2.77-16.67,6.73l-12.45,0.1l-6.28,5.27c-3.87-3.16-9.33-4.25-16.4-3.29
			c-7.87,1.07-14.22,4.63-19.04,10.69c-5.08-5.45-11.82-7.8-20.98-6.35l-9.99,3.32l1.56,11.45c0,0,6.73-4.02,12.22-4.85
			c6.82-1.03,11.55,2.8,14.16,11.21c-6.31,1.1-11.25,3.61-14.81,7.53c-3.91,4.29-5.42,9.77-4.52,16.44l4.92,10.87
			c3.31,3.97,6.99,5.68,11.01,5.13c7.79-1.05,12.77-4.72,14.95-10.99c1.48-4.12,1.72-10.17,0.72-18.13
			c4.67,1.25,9.61,3.91,14.84,7.98c4.89,3.83,8.67,7.78,11.44,11.86l1.46,6.3c-23.06,1.58-34.16,11.39-33.31,29.45
			c0.24,4.94,1.94,8.93,5.13,11.99c3.19,3.06,7.29,4.46,12.31,4.23c7.61-0.36,13.75-4.42,18.42-12.19
			c3.76-6.27,5.9-13.47,6.41-21.61c2.74,1.25,6.21,3.42,10.41,6.51c4.21,3.09,6.79,5.34,7.74,6.76l6.22,5.43l3.55-1.99l1.04-3.71
			c-0.19-3.97-4.02-8.74-11.51-14.31c-6.64-4.96-12.52-8.26-17.63-9.88c-0.01-3.02-1.29-16.76-2.79-22.37
			c-1.5-5.61-2.4-9.55-2.71-11.8l-0.16-9.86c3.04-16.34,15.23-11.07,15.23-11.07c5.31-4.77,12.81-6.09,15.81-5.98l10.23,5.86
			l4.95,10.89l-0.42,3.03l-0.41,3.02c-0.15,3.89,1.44,5.9,4.76,6.03l5.66-4.78l3.62-8.99c1.99-3.25,5.17-4.79,9.55-4.63
			c2.59,0.09,3.79,2.82,3.59,8.17c-0.26,7.04-2.35,12.89-6.26,17.53c-4.16,5.04-9.53,7.43-16.1,7.18
			c-10.85-0.41-18.17-4.26-21.95-11.53l-1.17-4.31c-2.47-11.93-4.76-17.94-6.87-18.02l-5.15,4.55c-0.43,11.42,2.21,20.89,7.93,28.41
			c6.09,8.18,14.86,12.48,26.28,12.91c9.65,0.36,17.73-3.37,24.27-11.19c5.87-7.13,8.98-15.53,9.35-25.19l-2.56-9.78
			c6.37-3.3,20.99-1.6,23.67-0.45c6.33,2.69,9.9,6.56,9.5,15.35c-6.32-1.11-11.81-0.43-16.5,2.05c-5.14,2.71-8.41,7.35-9.83,13.93
			c-0.83,3.8-0.51,7.77,0.92,11.89c1.78,4.86,4.64,7.71,8.6,8.56c7.68,1.65,13.61-0.09,17.79-5.25c2.81-3.37,5.09-8.98,6.86-16.81
			c3.97,2.76,7.71,6.95,11.23,12.56c3.52,5.61,5.85,10.94,7,15.99l3.5,3.98l4.4-1.11l2.64-3.86c0.46-2.15,0.94-6.11,1.44-11.9
			c0.5-5.79,0.99-9.8,1.47-12.02l3.67-8.93l6.26-7.13l7.95,2.01c1.97,2.85,1.95,12.91-0.77,20.97l-8.63,24.81l2.79,6.77l6.5-3.53
			l2.22-7.28l2.88-9.23c3.97-11.4,8.55-17.26,12.76-19.63c3.14-1.78,8.52-3.52,14.46-2.18l7.55,10.53l-1.77,2.46l-1.77,2.47
			c-1.42,3.01-0.1,5.45,3.93,7.35l7.5-4.23l5.64-5.12l8.85,0.62c3.52,1.65,4.22,4.72,2.11,9.22c-1.55,3.31-6.64,4.97-15.23,4.97
			c-6.75,0.06-12.64-0.65-17.69-2.12c-6.64-1.87-10.71-1.22-12.19,1.95l1.72,6.61c10.79,9.65,22.78,24.86,35.93,45.48l-0.7,3.05
			c-0.98,4.76-0.86,7.61,0.36,8.54l4.5,1.62l3.87-1.75l1.56-6.25l-0.25-1.04l1.24-1.97l0.1-1.39l3.62,1.62
			c3.34,2.55,6.08,5.82,8.22,9.8c2.15,3.99,3.14,8.01,2.98,12.08l0.1,4.05l-0.43,8.55l4.09,1.44l4.34-1.89l2.15-4.02
			c2.06-4.38,5.55-9.86,10.29-16.34l6.07-2.59c1.61-2.45,3.86-6.24,6.76-11.39l1.79-3.14l0.27-0.26l-0.07-0.09l4.78-7.9l7.77-8.74
			c3.99-3.12,7.42-3.68,10.28-1.71l2.24,2.96c0.04,6.32-2.62,12.79-7.94,19.43l-16.64,20.32l0.29,7.31l7.33-1.07l4.58-6.07
			l5.88-7.67c7.65-9.34,13.94-13.16,18.56-14.58l11.05-0.07c5.52,2.59,9.96,9.39,10.82,11.62l-8.51,5.25l-1.97,8.17l7.48,1.28
			l7.82-3.53l8.85,2.83l-1.11,9.38c-2.52,2.52-7.89,2.32-16.08-0.6c-6.42-2.29-11.73-4.95-15.91-7.98
			c-5.51-3.9-9.44-4.67-11.78-2.32l-0.95,6.62c3.27,6.7,6.51,13.38,9.73,20.02c3.56,7.8,6.06,14.76,7.49,20.89l1.21,6.87l2.67,9.2
			l7.65-0.26c2-2.01,1.42-8.66-1.73-19.95c-2.48-8.77-5.55-17.39-9.22-25.88c16,6.81,27.29,6.92,33.88,0.32l2.4-2.41
			c4.31,0.4,8.06,1.86,11.26,4.38l8-8C891.24,258.58,882.82,258.17,880.17,257.94z M466.29,157.27l-7.26,4.42l-3.13-1.41l-1.77-3.93
			c-1.03-7.55,2.86-12.08,11.65-13.61l0.66,4.82C467.08,152.22,467.02,155.46,466.29,157.27z M473.65,131.92l-1.24-4.6
			c3.23-5.73,8.1-9.04,14.61-9.92c3.93-0.54,7.28,0.31,10.03,2.54c-0.68,3.43-0.58,8.39,0.31,14.87l0.65,4.8l0.76,5.64
			C487.98,137.43,479.59,132.99,473.65,131.92z M487.2,203.97c-4.59,0.22-6.98-1.73-7.17-5.87c-0.27-5.75,1.61-10.34,5.64-13.77
			c3.74-3.02,8.71-4.67,14.92-4.97l3.03,0.1C500.81,195.43,495.35,203.59,487.2,203.97z M617.67,148.28
			c-0.99,4.6-2.14,7.62-3.44,9.09l-8.32,1.68l-2.48-2.39l-0.32-4.29c1.61-7.45,6.8-10.4,15.58-8.85L617.67,148.28z M651.06,146.8
			l-1.01,4.73l-1.19,5.57c-7.5-11.03-13.87-18.05-19.1-21.08l0.41-4.75c4.98-4.29,10.69-5.75,17.1-4.37l8.58,5.81
			C654.04,135.72,652.44,140.42,651.06,146.8z M789.63,216.6c-2.35-12.8-7.52-21.83-15.52-27.08c-6.71-4.41-12.33-3.16-16.88,3.75
			c-1.6,2.44-3.17,6.45-4.71,12.03c-1.93,6.49-2.02,10.31-0.26,11.47l7.07-1.46l3.09-8.37c0.95-3.89,1.97-6.64,3.03-8.27l1.11-1.01
			l1.72,0.69c5.29,3.47,8.91,9.16,10.9,17.07c0.99,3.97,1.4,7.7,1.21,11.16l-4.21,5.08c-3.3,4.31-5.68,7.7-7.14,10.15
			c-3.52-9.42-8.43-16.54-14.74-21.37c-5.23-4-9.86-4.7-13.88-2.12l-5.06-7.92c-5.45-8.21-11.32-16.21-17.61-24
			c18.3,1.08,29.49-3.28,33.58-13.1c9.65-4.06,24.21-0.81,31.86,5.91c5.6,4.91,12.24,11.71,18,22.85
			C798.14,204.38,794.28,209.23,789.63,216.6z"/>
		<path class="st1" d="M532.56,628.04c3.84,12.41,12.08,20.96,24.51,25.42c5.07,1.82,10.47,2.74,16.06,2.74h0
			c28.41,0,57.66-23.59,77.19-43.37l3.6-3.72c7.08,2.14,14.59,3.21,22.37,3.21c22.64,0,44.53-9.39,57.15-24.53
			c10.37-12.45,14.21-27.98,11.11-44.9c-2.63-14.29-10.21-17.29-16.1-17.29c-12.33,0-27.71,13.06-38.2,22.88
			c-6.41,6-12.53,12.31-18.44,18.41c-18.37,18.94-35.73,36.83-61.08,46.04c-6.49,2.37-12.71,3.56-18.47,3.56
			c-13.82,0-24.32-7.08-29.2-19.55c47.1-19.46,95.23-68.38,115.22-117.45c2.83-6.94,11.31-30.8,1.7-46.34
			c-4.43-7.16-11.89-11.18-22.16-11.97c-31.06-2.36-60.03,37.76-75.42,59.04l-1.51,2.08C567.9,500.27,518.5,582.6,532.56,628.04z
			 M560.84,564.72c4.91-39.61,30.09-81.81,59.76-99.49c5.15-3.07,10.32-4.62,15.39-4.62c4.73,0,9.25,1.39,13.42,4.12
			c5.13,3.36,7.85,7.55,8.34,12.81c1.23,13.25-12.4,31.5-25.56,44.15C615.61,537.62,590.04,557.67,560.84,564.72z M686.32,576.58
			c5.13-4.41,9.87-7.91,14.59-10.84l5.03-1.44c3.99,0,6.56,3.03,7.91,5.36l1.24,7.96C705.52,579.61,694.73,579.24,686.32,576.58z"/>
		<path class="st1" d="M817.56,335.36c-10.38,9.66-22.75,23.16-22.75,32.59V603.9l4.89-3.99c2.39-1.94,23.36-19.42,23.36-33.14
			V330.08L817.56,335.36z"/>
		<path class="st1" d="M555.01,512.34l0.51-0.76V326.44l-5.15,5.25l-0.73,0.7c-14.86,14.02-22.38,24.85-22.38,32.2v213.29
			l5.87-19.54C537.9,542.54,547.96,522.83,555.01,512.34z"/>
		<path class="st1" d="M603.59,727.7c22.72,0,40.96-23.24,47.24-46.2c4.99-18.26,1.54-33.47-9.02-39.71l-9.96-2.6
			c-18.49,0-42.23,21.77-57.93,36.18l-9.18,8.15c-26.34,21.01-47.02,27.41-60.68,18.46c-13.72-8.99-13.86-54.69-13.39-60.53
			l0.09-1.42l-1.85-1.97h-1.32c-4.73,0-23.41,24.7-24.75,31.22c-2.75,13.52-10.27,21.59-20.13,21.59c-5.36,0-10.82-2.43-15.78-7.03
			c-12.6-11.7-13.9-41.35-6.1-56.51c3.71-7.18,3.86-9.36,2.81-11.08l-2.98-1.65c-5.23,0-17.64,17.03-18.8,19.07
			c-3.97,7.02-9.33,10.74-15.51,10.74c-10.96,0-22.04-11.51-22.8-23.7c-0.84-13.39,4.63-28.57,9.91-43.24
			c2.64-7.33,5.14-14.25,6.83-20.87c3.24-12.62,2.43-22.18-2.41-28.41c-4.12-5.32-10.9-8.01-20.16-8.01
			c-15.91,0-36.18,8.15-48.71,15.12c-26.45,14.74-43.85,45.75-50.7,67.82c-2.54,8.16-1.64,15.27,2.67,21.11
			c10.82,14.7,39.88,16.29,51.87,16.29c5.71,0,11.2-0.34,15.47-0.96c3.63-0.52,7.24-4.16,10.45-8.94
			c-3.17,13.61-5.22,34.13,2.72,44.74c4.51,6.01,11.51,8.22,20.65,6.44c11.03-2.16,20.98-7.29,30.26-15.58
			c-2.19,19.07-2.77,45.53,7.98,58.03c5.79,6.73,14.14,8.79,24.56,5.99c14.12-3.79,26.95-12.91,38.25-27.14
			c0.67,10.32,3.87,22.22,15.44,36.31c3.94,4.79,9.48,7.23,16.5,7.23c17.33,0,39.25-14.84,49.78-21.98l0.45-0.31
			c7.54-5.11,14.66-11.27,21.54-17.22l0.67-0.58C578.83,720.59,590.93,727.7,603.59,727.7L603.59,727.7z M626.77,690.87
			c-7.3,1.9-14.72-1.12-22.97-9.2l5.38-1.87c5.24-1.08,9.74,0.09,13.3,3.08L626.77,690.87z M346.59,600.74l-9.74,0.64
			c-22.87,0-46.24-8.45-48.1-17.39c-1.2-5.78,7.17-13.02,22.96-19.88c3.39-1.47,15.32-6.28,26.46-6.28
			c10.32,0,15.68,4.13,16.41,12.63c0.78,9.12-2.22,19.88-5.81,30.24h-1.74L346.59,600.74z"/>
		<path class="st1" d="M313.75,494.78l22.11,13.87l0.99,0.53h0.86c4.03,0,9.96-9.63,12.78-14.64l14.15,8.87l0.98,0.51h0.86
			c5.28,0,14.66-17.43,15.54-20.51l-1.33-4.92l-22.12-13.85l-0.98-0.53h-0.87c-4.03,0-9.98,9.62-12.8,14.64l-14.12-8.86l-0.98-0.53
			h-0.86c-5.29,0-14.66,17.43-15.55,20.51L313.75,494.78z"/>
		<path class="st1" d="M786.66,515.79l-0.3-135.27l-5.48,5.2c-10.4,9.65-22.79,23.13-22.77,32.6l0.42,197.02
			c0.15,71.08-54.22,122.06-132.23,123.99c-10.12,0.24-17.07,15.52-23.07,32l-1.09,2.91l-1.67,4.22l4.54-0.11
			c103.42-2.54,166.19-92.05,180.76-174.14c3.52-19.87,2.58-41.25,1.68-61.91C787.05,533.1,786.67,524.39,786.66,515.79z"/>
		<path class="st1" d="M466.77,512.62c-5.25,5.17-10.89,10.23-17.42,15.93l-4,7.61l3.72,2.36l5.74-1.76
			c8.05-3.93,16.26-9.47,23.74-16.01c9.77-8.54,20.09-17.81,29.38-27.93l1.89-5.38l-3.51-2.38l-1.92-0.15
			c-4.46-0.32-18.05-1.26-21.16-5.43l-0.41-2.25c1.09-4.85,8.78-9.64,14.38-13.14l4.92-3.21c0.13-0.09,12.52-9.36,11.11-13.69
			l-3.2-2.26l-0.51,0.03c-7,0.87-14.11,6.19-19.81,10.47l-2.73,2.03l-8.05,5.64c-11.56,7.99-23.53,16.25-31.42,27.52
			c-3.17,4.53-3.93,8.64-2.26,12.23C448.05,508.9,457.06,511.36,466.77,512.62z"/>
		<path class="st1" d="M403.08,589.35l22.11,13.86l0.99,0.52l0.86,0.01c5.27,0,14.66-17.42,15.55-20.5l-1.33-4.92l-22.12-13.87
			l-0.98-0.53h-0.86c-5.29,0-14.66,17.44-15.54,20.52L403.08,589.35z"/>
		<path class="st1" d="M797.81,367.95v229.64c6.07-4.95,22.25-20.05,22.25-30.81V337.13C818.65,338.49,797.81,357.2,797.81,367.95z
			 M640.29,644.37c-20.87-12.34-60.81,31.24-73.67,41.5c-15.66,12.49-44.02,31.85-64.18,18.62c-16.25-10.63-14.93-61.21-14.74-63.29
			c0.19-2.08-20.27,20.73-21.9,28.69c-5.08,24.98-25.3,30.6-40.89,16.16c-13.9-12.9-14.86-44.28-6.73-60.09
			c10.65-20.63-9.97,2.62-13.69,9.2c-14.31,25.32-42.6,6.84-43.92-14.25c-1.29-20.78,11.72-45.15,16.84-65.04
			c12.39-48.31-40.17-32.83-66.91-17.94c-23.41,13.04-41.52,41.05-49.3,66.09c-10.52,33.89,47.56,35.34,66.72,32.59
			c9.3-1.34,20.35-33.05,19.11-32.88c-32.82,4.74-96.76-16.19-36.51-42.35c14.71-6.39,45.11-13.95,47.05,8.85
			c1.5,17.5-9.67,39.36-14.5,55.9c-4.63,15.78-11.39,58.6,18.52,52.75c14.28-2.8,25.62-10.75,34.97-20.97
			c-2.31,15.24-10.85,79.81,27.64,69.46c17.44-4.69,31.42-17.79,41.95-33.32c-0.41,11.32-0.01,25.4,14.82,43.49
			c14.34,17.45,50.05-7.06,62.73-15.64c8.49-5.76,16.39-12.77,24.38-19.66C619.3,770.28,672.51,663.42,640.29,644.37z
			 M608.58,676.85c6.16-1.25,11.52,0.08,16.09,3.99c3.64,3.92,5.27,9.86,5.75,11.96c-12.12,5.07-22.88-2.63-31.27-11.69
			L608.58,676.85z M558.08,650.63c32.48,11.66,69.46-18.99,90.11-39.92l4.95-5.17c41.28,13.64,97.66-11.96,88.46-62.11
			c-5.97-32.48-38.37-3-49.3,7.24c-25.83,24.18-46.06,52.54-80.55,65.08c-25.6,9.31-44.95,0.09-51.64-20.98
			c49.55-19.68,96.69-70.55,115.39-116.41c8.21-20.17,12.21-51.9-17.92-54.19c-30.32-2.33-59.2,39.1-74.27,59.89
			C561.62,514.06,498.33,629.18,558.08,650.63z M699.47,563.12c7.24-3.95,13.43-1.1,17.09,5.27l0.97,11.77
			c-10.78,2.59-24.52,2.27-35.76-2.47C687.46,572.58,692.92,567.16,699.47,563.12z M619.06,462.64c10.41-6.19,21.86-7.07,31.99-0.42
			c24.96,16.36-4.27,49.6-16.78,61.62c-20.99,20.17-47.66,38.72-76.7,44.52C561.23,527.79,586.96,481.77,619.06,462.64z
			 M783.38,387.51c-1.59,1.52-22.28,20.06-22.26,30.81c0.14,65.68,0.27,131.34,0.41,197.02c0.17,76.63-60.91,125.17-135.16,127
			c-10.77,0.25-19.07,27.05-21.44,33.02c95.32-2.34,161.88-81.51,177.87-171.66c4.98-28.12,0.88-59.49,0.85-87.89
			C783.55,473.04,783.47,430.27,783.38,387.51z M552.53,333.8c-1.38,1.41-22.26,20.05-22.26,30.81v192.88
			c4.6-15.31,14.49-35.27,22.26-46.83V333.8z M349.37,490.29c5.62,3.52,11.24,7.04,16.86,10.57l12.88-19.82
			c-7.37-4.62-14.74-9.24-22.11-13.86c-1.64-1.03-9.05,9.72-11.93,15.81c-5.62-3.52-11.24-7.05-16.84-10.57l-12.89,19.81
			c7.38,4.63,14.74,9.24,22.12,13.87C339.09,507.13,346.49,496.39,349.37,490.29z M439.68,580.86c-7.38-4.63-14.76-9.25-22.13-13.87
			l-12.87,19.81c7.38,4.62,14.75,9.24,22.12,13.87L439.68,580.86z M473.04,510.27c-6.89,7.2-14.22,13.99-21.72,20.54
			c-5.15,4.5-3.83,6.17,2.17,3.25c8.29-4.05,16.15-9.51,23.08-15.57c10.04-8.77,20.01-17.76,29.02-27.57l0.44-2.88
			c-5.33-0.48-28.49-1.03-26.16-11.47c1.77-7.83,14.79-13.99,20.48-18.11l9.5-10.51c-7.32,0.9-15.44,7.82-21.15,11.96
			c-13.14,9.5-29.31,18.95-38.76,32.44C439.79,506.87,462.2,509.32,473.04,510.27z"/>
	</g>
</g>
</svg>
