<?xml version="1.0" encoding="utf-8"?>
<!-- Generator: Adobe Illustrator 25.4.1, SVG Export Plug-In . SVG Version: 6.00 Build 0)  -->
<svg version="1.1" id="Layer_1" xmlns="http://www.w3.org/2000/svg" xmlns:xlink="http://www.w3.org/1999/xlink" x="0px" y="0px"
	 viewBox="0 0 1080 1080" style="enable-background:new 0 0 1080 1080;" xml:space="preserve">
<style type="text/css">
	.st0{fill:url(#SVGID_1_);}
	.st1{fill:#FFFFFF;}
	.st2{fill:url(#SVGID_00000059301247954428983200000008326097332923234691_);}
	.st3{fill:url(#SVGID_00000005964895613332542970000001990226880888946350_);}
	.st4{fill:url(#SVGID_00000178926396355108550460000007954870004605078181_);}
	.st5{fill:url(#SVGID_00000029008433850813069600000016750094722393581451_);}
	.st6{fill:url(#SVGID_00000118363939289387978710000000910344319759051949_);}
	.st7{fill:url(#SVGID_00000007402671494208289000000015765793407441353892_);}
	.st8{fill:url(#SVGID_00000142885969254944233530000010269796574215417501_);}
	.st9{fill:url(#SVGID_00000096028977423427760750000017983600165298972834_);}
	.st10{fill:url(#SVGID_00000096767298890685071570000010862505594704842676_);}
	.st11{fill:url(#SVGID_00000010272518660712549740000012894693408262507161_);}
	.st12{fill:url(#SVGID_00000097462679091879966260000004887164733359135630_);}
	.st13{fill:url(#SVGID_00000133493369238647591030000009676880839145112461_);}
	.st14{fill:url(#SVGID_00000179608280643438882190000012451551676471464127_);}
	.st15{fill:url(#SVGID_00000058559791347359817870000003749742280320500664_);}
	.st16{fill:url(#SVGID_00000023240956581325408720000008943164187405404850_);}
	.st17{fill:url(#SVGID_00000183939267162009998250000000401687986260822709_);}
	.st18{fill:url(#SVGID_00000048476609330870751850000015222989116473688710_);}
	.st19{fill:url(#SVGID_00000031175000884800069130000012377070240704052901_);}
</style>
<g>
	<linearGradient id="SVGID_1_" gradientUnits="userSpaceOnUse" x1="277.5394" y1="-172.8468" x2="1162.2075" y2="711.8214">
		<stop  offset="0" style="stop-color:#3BB24A"/>
		<stop  offset="1" style="stop-color:#056938"/>
	</linearGradient>
	<path class="st0" d="M1027.6,505.09c-1.74-20.91-4.74-41.32-8.91-60.7c-4.95-22.01-10.56-41.25-17.14-58.82
		c-14.4-39.14-33.9-75.13-57.96-106.95l-3.76,2.46c20.29,35.97,36.41,72.7,47.91,109.2c12.02,38.43,19.57,77.5,22.43,116.17
		c1.58,19.45,2,39.36,1.23,59.22c-0.48,17.69-2.23,37-5.36,59.03c-5.65,37.98-15.8,76.79-30.19,115.37l4.1,1.85
		c18.77-35.06,32.4-73.66,40.5-114.72C1028.3,588.06,1030.7,546.98,1027.6,505.09z"/>
	
		<linearGradient id="SVGID_00000020384577587491770630000012163730302365332924_" gradientUnits="userSpaceOnUse" x1="-142.9341" y1="247.6268" x2="741.734" y2="1132.2949">
		<stop  offset="0" style="stop-color:#3BB24A"/>
		<stop  offset="1" style="stop-color:#056938"/>
	</linearGradient>
	<path style="fill:url(#SVGID_00000020384577587491770630000012163730302365332924_);" d="M68.53,565.32
		c-0.73-20.23-0.29-40.21,1.32-59.4c2.91-38.75,10.55-77.94,22.69-116.5c11.65-36.64,27.91-73.47,48.33-109.45l-3.75-2.48
		c-24.24,31.88-43.89,67.94-58.4,107.17c-6.61,17.5-12.26,36.8-17.32,59.02c-4.27,19.96-7.29,40.44-8.97,60.9
		c-3.13,41.94-0.74,83.17,7.1,122.51c8.11,41.17,21.77,79.9,40.62,115.11l4.1-1.85c-14.46-38.58-24.67-77.52-30.35-115.73
		C70.78,602.78,69.04,583.39,68.53,565.32z"/>
	
		<linearGradient id="SVGID_00000051371909557260894010000008599603558362780595_" gradientUnits="userSpaceOnUse" x1="-260.7162" y1="365.4088" x2="623.9519" y2="1250.0769">
		<stop  offset="0" style="stop-color:#3BB24A"/>
		<stop  offset="1" style="stop-color:#056938"/>
	</linearGradient>
	<path style="fill:url(#SVGID_00000051371909557260894010000008599603558362780595_);" d="M232.51,829.57l8.64-7.62
		c-30.66-29.61-53.61-66.29-67.45-88.88c-5.38,3.75-9.48,6.55-9.48,6.55l4.07,5.9l-6.64,4.58l4.43,6.43l4.29,7.31l-0.97,8.3
		l-4.22,6.5c-3.75-5.71-8.6-9.37-14.57-10.94c-6.19-1.75-12.02-0.73-17.5,3.05c-4.57,3.16-7.28,7.65-8.13,13.47
		c-0.85,5.83,0.3,11.03,3.46,15.59c2.18,3.16,6.18,6.32,11.99,9.46l7.89-9.97c-4.74-2.95-7.56-5.1-8.48-6.44l-1.34-6l2.72-5.07
		l7.43-0.29l6.46,5.07c3.11,4.5,4.44,11.6,3.97,21.3c-0.53,10.05-2.9,16.53-7.12,19.44l-7.07,4.88l7.22,10.43l56.38-38.95l7.67,9.74
		l-50.22,44.21l8.39,9.52l51.43-45.29L232.51,829.57z M170.28,814.68c2.13-9.39,2.5-17.1,1.14-23.14
		c7.27-5.54,10.86-14.17,10.77-25.87c0,0,5.3,10.98,19.08,27.6C194.63,797.95,170.28,814.68,170.28,814.68z"/>
	
		<linearGradient id="SVGID_00000007414421244671337390000013100441170895301019_" gradientUnits="userSpaceOnUse" x1="-263.598" y1="368.2906" x2="621.0701" y2="1252.9587">
		<stop  offset="0" style="stop-color:#3BB24A"/>
		<stop  offset="1" style="stop-color:#056938"/>
	</linearGradient>
	<path style="fill:url(#SVGID_00000007414421244671337390000013100441170895301019_);" d="M288.43,863.71
		c-4.5-3.53-9.51-5.3-15.05-5.31c-6.08,0.01-10.86,2.22-14.34,6.66l-2.45,8.83l4.38,8l3.09,1.44l10.85-3.85l-4.74-4.54l-0.34-3.52
		l6.13-1.37l5.83,2.94l4.48,7.99l-2.36,8.81l-11.31,4.46l-1.99-2.04c-2.88-2.27-6.71-3.21-11.47-2.82l-3.89,12.42l8.81,2.68
		l3.56,6.78l-2.9,7.73l-8.13,3.4l-9.32-3.57c-11.22-8.81-13.59-25.21-7.12-49.23l-11.93,3.17c-6.4,26.14-1.77,45.34,13.88,57.63
		c4.9,3.85,10.61,5.56,17.13,5.14c6.52-0.42,11.7-3.08,15.55-7.99c4.9-6.24,6.63-13.42,5.16-21.52c5.34-0.15,9.93-2.69,13.78-7.59
		c4.21-5.37,5.73-11.46,4.55-18.24C297.08,873.43,293.8,867.93,288.43,863.71z"/>
	
		<linearGradient id="SVGID_00000183224963910550122110000006655533323249158295_" gradientUnits="userSpaceOnUse" x1="-227.8142" y1="332.5069" x2="656.8539" y2="1217.1749">
		<stop  offset="0" style="stop-color:#3BB24A"/>
		<stop  offset="1" style="stop-color:#056938"/>
	</linearGradient>
	<path style="fill:url(#SVGID_00000183224963910550122110000006655533323249158295_);" d="M480.14,960.03
		c-3.13-8.55-8.09-13.45-14.91-14.69c-5.29-0.96-10.63,0.98-16.02,5.82c-2.87-6.68-6.47-10.28-11.19-11.9l-26.6-8.05l-2.32,5.97
		c-2.12-5.41-5.25-8.9-9.39-10.52c-5.81-2.25-11.47-0.87-16.99,4.14c-1.81-7.84-5.29-11.97-10.01-15.15l-13.87-7.76
		c4.02-6.76,9.05-9.87,16.05-10.92c6.35-0.92,13.17,0.53,20.43,4.33c8.93,4.67,18.01,15.02,27.27,31.04l10.51-4.9
		c-5.44-9.69-10.02-16.81-13.72-21.35c-5.43-6.79-11.54-11.97-18.36-15.53c-10.38-5.43-20.33-7.36-29.83-5.79
		c-10.4,1.79-18.5,7.76-24.31,17.93l-8.54-4.09l-5.36,10.43l8.56,3.87l-31.66,60.48l11.45,6l31.89-60.76c0,0,21.32,9.15,18.02,19.81
		c-2.3,7.42-6.44,10-10.9,8.27c-2-0.77-4.09-4.2-6.31-10.28l-5.37,13.86c0.89,5.02,3.56,8.39,8.02,10.12
		c5.33,2.07,10.74,1,16.21-3.2c1.63,6.68,4.31,10.74,8.04,12.19l12.49-0.66l5.23-13.49c-5.56,1.6-9.06,2.11-10.49,1.56
		c-4.14-1.61-4.98-5.6-2.51-11.97l4.7-4.86l6.74-0.18l5.42,6.92l-0.4,9.89l-19.16,49.41l11.83,4.58l24.86-64.13l17.45,6.25
		l2.45,8.77l-3.06,5.11l-5.38,1.56l-6.27-4.53l-2.38,13.11c1.26,3.62,4.56,5.91,9.95,6.89c4.96,0.9,8.89,0.01,11.81-2.67l9.24,6.49
		l10.28-2.16l2.59-14.24l-6.6,1.54l-4.25-2.99l-1.06-5.4l2.9-4.55l4.93-1.44l7.83,6.88c2.29,3.63,4.06,7.86,5.35,12.69
		c5.73-3.47,10.34-6.67,13.81-9.6l1.31,8.56c-0.85,4.7-4.49,8.56-10.9,11.56l-5.12-2.5l-10.47,2.01l1.95,13.63l7.21-1.03l6.21,3.47
		l1.96,6.09c-0.9,4.95-3.93,8.48-9.08,10.58c-4.5,1.79-9.48,2.19-14.93,1.2c-7.57-1.37-14-5.62-19.3-12.75
		c-3.71-4.92-7.72-12.69-12.04-23.28l-9.37,7.15c3.2,9.61,7.57,18.08,13.09,25.42c6.93,9.15,14.26,14.43,21.99,15.83
		c10.17,1.85,18.72,1.8,25.68-0.15c9.33-2.65,14.86-8.72,16.59-18.21c1.32-7.31-0.08-13.64-4.23-18.99
		c7.29-3.36,11.79-9.7,13.48-19.03c1.37-7.56-2.15-16.87-10.55-27.95L480.14,960.03z"/>
	
		<linearGradient id="SVGID_00000142886338938981906130000005770227208678207384_" gradientUnits="userSpaceOnUse" x1="27.4127" y1="77.28" x2="912.0808" y2="961.9481">
		<stop  offset="0" style="stop-color:#3BB24A"/>
		<stop  offset="1" style="stop-color:#056938"/>
	</linearGradient>
	<path style="fill:url(#SVGID_00000142886338938981906130000005770227208678207384_);" d="M840.92,851.74
		c-9.64-0.58-17.72,1.93-24.26,7.55c-4.21,3.63-6.91,7.81-8.1,12.57c-1.5,5.46-0.44,10.29,3.17,14.49c2.9,3.37,6.72,5.32,11.47,5.86
		c4.73,0.54,9.04-0.75,12.91-3.85l-2.06-12.6c-5.13,3.98-8.9,4.58-11.3,1.79l2.4-8.84c4.09-3.52,9.19-4.96,15.29-4.32
		c6.11,0.65,10.9,3,14.42,7.06c3.94,4.58,5.65,9.82,5.14,15.71c-0.52,5.89-3.08,10.82-7.69,14.78c-7.06,6.09-21.4,4.91-43.01-3.53
		l0.66,12.75c11.89,4.25,20.96,6.55,27.23,6.89c9.76,0.48,18.29-2.44,25.6-8.73c7.64-6.57,11.4-14.25,11.27-23.03
		c-0.17-8.17-3.58-16.14-10.26-23.88C858.17,855.89,850.55,852.33,840.92,851.74z"/>
	
		<linearGradient id="SVGID_00000179628684525334415280000016218197236038550454_" gradientUnits="userSpaceOnUse" x1="-120.5437" y1="225.2364" x2="764.1244" y2="1109.9044">
		<stop  offset="0" style="stop-color:#3BB24A"/>
		<stop  offset="1" style="stop-color:#056938"/>
	</linearGradient>
	<path style="fill:url(#SVGID_00000179628684525334415280000016218197236038550454_);" d="M699.16,931.6l-3.79-11.25
		c-43.95,17.43-85.64,25.64-115.22,29.51l-43.23,3.46l0.91,11.49c0,0,12.15-0.02,32.04-2.1c-5.74,0.69-10.79,2.35-15.1,5.11
		c-5.94,3.82-8.67,8.88-8.16,15.18l5.21,9.79c3.15,2.45,6.98,3.54,11.5,3.26l6.94-11.15c-5.98,0.22-9.06-0.85-9.25-3.22
		c-0.34-4.23,3.65-6.67,12.01-7.34c4.67-0.37,8.75,0.54,12.23,2.73l5.71,9.65c0.43,5.34-3.42,9.74-11.53,13.2
		c-5.88,2.51-12.05,4.03-18.53,4.55c-2.3,0.19-6.84,0.12-13.63-0.19l6.71,16.3c7.25-0.41,16.45,1.25,27.63,4.99
		c9.95,3.4,18.75,7.45,26.41,12.15l7.5-9.08c-11.79-7.03-23.23-12.41-34.31-16.15c16.59-6.72,24.41-16.12,23.44-28.2
		c-0.6-7.49-4.61-13.25-12.04-17.28c-6.23-3.53-13.09-5-20.57-4.5l10.3-1.24l29.46-4.14l12.81,67.31l12.46-2.36l-12.81-68.08
		l10.14-2.15c14.23,2.86,24.06,10.92,27.29,21.18c0.95,3.01,0.87,7.15-0.25,12.43c-1.26,5.67-3.14,8.92-5.67,9.7
		c-2.61,0.82-6.89-0.11-12.83-2.81l4.18,13.31c6.1,1.67,10.6,2.04,13.54,1.1c5.72-1.79,9.69-6.13,11.93-13.01
		c0.29-1.07,1.32-7.21,3.1-18.42c1.07-6.52,3.09-10.24,6.04-11.17l4.93,0.93l3.34,4.39l10.75,34.22l12.1-3.8l-20.53-65.71
		L699.16,931.6z M676.76,952.7l-7.99,7.22c-3.43-5.46-9.11-9.83-15.08-12.79l26.57-8.57l4.75,15.04L676.76,952.7z"/>
	
		<linearGradient id="SVGID_00000183229894253336802680000008595249868714443192_" gradientUnits="userSpaceOnUse" x1="37.3039" y1="67.3888" x2="921.972" y2="952.0569">
		<stop  offset="0" style="stop-color:#3BB24A"/>
		<stop  offset="1" style="stop-color:#056938"/>
	</linearGradient>
	<path style="fill:url(#SVGID_00000183229894253336802680000008595249868714443192_);" d="M915.61,740.72l-9.42-6.65
		c-7.65,16.53-39.83,56.37-39.83,56.37c-4.88,5.91-10.12,12.02-15.73,18.26l-7.91,8.65c-8.63,9.21-17.97,18.54-27.91,27.66
		l-22.65,19.5l-11.13,8.6c0,0-21.5,16.2-39.77,25.48l6.6,12.87c-5.53-2.73-10.23-4.2-14.1-4.43c-4.52-0.37-9.32,0.75-14.43,3.37
		c-10.05,5.17-16.44,12.52-20.3,22.95l-1.02,3.83l7.51,6.79l7.69-1.29l4.66,4.87c1.25,2.43,1.89,6.13,1.95,11.09l9.27,5.47
		c9.55-13.93,18.09-25.61,25.64-35.05c2.81,1.92,6.71,7.7,11.65,17.36c1.6,3.12,3.66,7.29,6.2,12.53c2.74,5.8,4.45,9.34,5.11,10.63
		l11.28-5.79l-31.16-60.74l11.03-6.95l37.55,56.02l10.54-7.06l-37.62-56.14l16.15-12.15c10.71-8.49,20.96-17.47,30.67-26.64
		l22.8-22.5l50.54,46.26l8.57-9.35l-50.55-46.27l19.77-23.3c11.28-13.81,20.51-26.32,27.24-36.24l16.59,11.72
		c-4.59,0.3-7.87,1.84-9.84,4.62c-3.2,4.53-3.52,10.82-0.95,18.89c-8.27,0.01-14.27,2.65-18.01,7.94
		c-4.13,5.85-5.58,11.89-4.34,18.14c1.23,6.24,4.77,11.43,10.63,15.58c5.72,4.03,11.83,5.59,18.36,4.65
		c6.51-0.94,11.79-4.27,15.83-9.98l2.5-4.2l-8.16-11.1l-2.64,4.41c-5.47,7.74-11.1,9.56-16.89,5.47
		c-6.97-4.93-8.56-10.08-4.77-15.45l7.15-3.02l9.86,3.13l7.99-11.29l-5.52-7.75l0.28-7.24c3.99-5.65,12.04-4.19,24.17,4.38
		l5.77,4.39l6.88,5.48l7.09-10.04l-55.26-39.04L915.61,740.72z M728.15,942.88l-1.36-4.05c-2.22-4.33-6-6.75-11.36-7.27
		c3.19-5,6.66-8.45,10.38-10.36l8.69-1.44l8.86,3.09L728.15,942.88z"/>
	
		<linearGradient id="SVGID_00000162310593377457277870000003637982356538834845_" gradientUnits="userSpaceOnUse" x1="109.3931" y1="-4.7004" x2="994.0612" y2="879.9677">
		<stop  offset="0" style="stop-color:#3BB24A"/>
		<stop  offset="1" style="stop-color:#056938"/>
	</linearGradient>
	<path style="fill:url(#SVGID_00000162310593377457277870000003637982356538834845_);" d="M138.76,219.74
		c11.2,13.25,24.81,22.92,40.83,28.99c19.33,7.46,35.32,5.85,47.94-4.82c11.85-10.02,17.01-24.44,15.49-43.23
		c11.18-5.15,20.02-8.43,26.48-9.83c4.49,2.06,7.09,3.22,7.78,3.47l7.92-0.6l-0.07-7.3l-2.73-2.6l-2.75-2.62l-3.99-5.77l-3.98-5.78
		c-6.6-8.78-10.08-13.55-10.47-14.29c-3.2-5.91-2.86-11.73-0.02-14.11l7.28-2.08c6.65,2.51,12.41,7.9,17.26,16.17l14.69,25.69
		l7.82,2.63l1.82-8.15l-4.56-7.26l-5.7-9.28c-6.75-11.81-9.04-20.22-7.25-25.37l4.43-10.74c2.65-4.52,8.58-10.46,10.4-12.03
		c9.18-6.58,16.5-9.43,26.81-13.66c11.8-4.84,24.43-3.13,32.5,3.93l0.52,8.04l-12.23,0.92c-4.8,2-7.86,5.83-9.16,11.51
		c-9.3-5.52-17.55-6.8-24.72-3.83c-10.63,4.41-12.26,15.52-4.87,33.32l5.17,8.53l7.84,4.61l3.23-7.25l-3.01-5.1l-2.95-4.97
		c-1.93-4.62-3.04-7.8-3.36-9.53l2.73-8.08l11.69,1.01c0.75,0.37,3.95,2.71,9.59,7.01l7.76,2.63c2.44-1.02,3.1-4,1.99-8.98
		c-1.12-4.97-0.17-8.09,2.87-9.35c4.98-2.06,9.77-0.64,14.38,4.27c3.13,4.44,6.28,8.92,9.44,13.44l7.45,4.03l2.7-7.8
		c-1.27-3.04-3.63-7.27-7.12-12.7c-3.48-5.42-5.94-9.57-7.06-12.57c-1.96-5.18-2.37-17.12-0.78-20.63c2.73-5.98,7.5-6.04,7.5-6.04
		l-4.98-12.02l-9.11,6c-1.72,2.24-3.52,5.77-4.32,10.25c-10.86-6.38-25.23-5.67-37.9-0.59c-11.2,4.48-18.46,7.38-25.07,11.93
		c-1.77,1.45-8.69,6.08-14.41,13.04c-2.19,2.67-9.07,15.73-9.39,21.8l-7.96-5.08c-5.49-2.32-12.94-1.85-17.71,0.55l-8.73,13.59
		c-6.66-1.08-12.94,0.89-18.87,5.9c-6.07,5.14-9.38,10.98-9.93,17.54c-5.45-1.49-10.68-0.11-15.7,4.14
		c-5.73,4.83-8.5,11.3-8.34,19.42l-5.42,0.81l-0.93,7.61l6.6,6.43l6.6,6.44c4.42,5.23,8.1,6.61,11.03,4.14l0.24-8.41
		c-3.65-4.31-5.76-8.94-6.36-13.9c-0.69-5.48,0.84-9.82,4.61-13c4.04-3.42,9.19-1.42,15.47,6c5.69,6.72,7.82,14.97,6.38,24.74
		c-1.42,9.77-5.63,17.61-12.6,23.5c-9.77,8.25-22.51,9.23-38.23,2.93c-13.22-5.31-24.57-13.57-34.05-24.78
		c-8.13-9.62-12.3-19-12.49-28.14l-1.47-4.5l-8.37-0.99c-3.26,4.07-2.65,11.16,1.81,21.25
		C130.14,207.78,134.16,214.31,138.76,219.74z M229.36,169.69c-0.12-3.7,2.04-7.43,6.51-11.21c3.56-3.01,8.18-3.83,13.88-2.45
		c6.42,10.42,11.37,18.26,14.87,23.53c-10.57,2.5-19.06,5.39-25.49,8.68l-4.53-7.06C231.27,176.25,229.52,172.42,229.36,169.69z"/>
	
		<linearGradient id="SVGID_00000137819930164885055590000001208637455297318552_" gradientUnits="userSpaceOnUse" x1="304.5144" y1="-199.8218" x2="1189.1825" y2="684.8464">
		<stop  offset="0" style="stop-color:#3BB24A"/>
		<stop  offset="1" style="stop-color:#056938"/>
	</linearGradient>
	<path style="fill:url(#SVGID_00000137819930164885055590000001208637455297318552_);" d="M437.84,68.28
		c7.68-1.16,13.01,3.16,15.96,12.63c-7.11,1.24-12.67,4.07-16.68,8.48c-4.41,4.84-6.11,11.01-5.09,18.53l5.54,12.24
		c3.73,4.47,7.87,6.39,12.4,5.78c8.77-1.19,14.39-5.32,16.84-12.38c1.66-4.65,1.94-11.46,0.81-20.43c5.26,1.41,10.82,4.4,16.72,8.99
		c5.51,4.31,9.77,8.77,12.89,13.36l1.64,7.1c-25.98,1.78-38.48,12.83-37.53,33.18c0.27,5.56,2.19,10.06,5.78,13.51
		c3.59,3.45,8.22,5.03,13.87,4.77c8.58-0.41,15.5-4.98,20.75-13.73c4.24-7.06,6.64-15.17,7.22-24.34c3.09,1.41,6.99,3.85,11.73,7.33
		c4.74,3.48,7.65,6.02,8.73,7.61l7.01,6.12l4-2.24l1.17-4.17c-0.21-4.47-4.53-9.85-12.97-16.12c-7.48-5.59-14.1-9.31-19.86-11.13
		c-0.02-3.4-1.46-18.88-3.14-25.21c-1.69-6.32-2.71-10.76-3.05-13.3l-0.18-11.11c3.43-18.42,17.16-12.47,17.16-12.47
		c5.99-5.37,14.43-6.87,17.81-6.74l11.53,6.6l5.58,12.27l-0.48,3.41l-0.47,3.41c-0.17,4.39,1.62,6.64,5.36,6.79l6.37-5.38
		l4.08-10.13c2.24-3.66,5.83-5.4,10.75-5.21c2.92,0.1,4.27,3.17,4.04,9.2c-0.3,7.93-2.65,14.52-7.05,19.75
		c-4.69,5.67-10.74,8.37-18.14,8.09c-12.22-0.47-20.47-4.8-24.74-12.99l-1.32-4.86c-2.78-13.45-5.36-20.21-7.74-20.3l-5.81,5.13
		c-0.49,12.87,2.49,23.53,8.94,32.01c6.87,9.21,16.75,14.06,29.61,14.55c10.87,0.41,19.98-3.8,27.34-12.61
		c6.61-8.03,10.12-17.49,10.53-28.39l-2.88-11.02c7.18-3.72,23.65-1.8,26.67-0.51c7.14,3.03,11.15,7.4,10.71,17.3
		c-7.12-1.25-13.31-0.49-18.59,2.31c-5.79,3.05-9.47,8.28-11.08,15.69c-0.93,4.28-0.58,8.75,1.04,13.39c2,5.48,5.23,8.69,9.69,9.65
		c8.65,1.86,15.34-0.11,20.04-5.91c3.17-3.8,5.73-10.11,7.73-18.94c4.47,3.11,8.68,7.84,12.65,14.15
		c3.97,6.32,6.59,12.32,7.89,18.02l3.95,4.49l4.96-1.25l2.97-4.35c0.52-2.42,1.06-6.88,1.62-13.41c0.56-6.52,1.11-11.04,1.65-13.54
		l4.13-10.06l7.05-8.03l8.96,2.26c2.22,3.21,2.19,14.55-0.87,23.63l-9.72,27.95l3.14,7.63l7.33-3.98l2.5-8.2l3.25-10.4
		c4.47-12.85,9.63-19.44,14.38-22.12c3.53-2,9.6-3.97,16.29-2.46l8.51,11.87l-1.99,2.77l-2,2.78c-1.6,3.39-0.11,6.15,4.43,8.28
		l8.45-4.77l6.35-5.77l9.97,0.7c3.96,1.86,4.76,5.32,2.37,10.39c-1.75,3.73-7.48,5.6-17.16,5.6c-7.61,0.07-14.25-0.73-19.93-2.39
		c-7.48-2.1-12.07-1.37-13.74,2.19l1.94,7.45c12.16,10.88,25.66,28.01,40.48,51.24l-0.79,3.44c-1.1,5.36-0.96,8.57,0.41,9.62
		l5.07,1.82l4.36-1.98l1.76-7.04l-0.29-1.17l1.4-2.22l0.12-1.56l4.08,1.83c3.77,2.87,6.85,6.55,9.26,11.04
		c2.42,4.49,3.54,9.02,3.36,13.61l0.12,4.56l-0.49,9.63l4.6,1.63l4.89-2.13l2.42-4.53c2.32-4.94,6.25-11.11,11.59-18.41l6.84-2.92
		c1.81-2.76,4.35-7.03,7.61-12.83l2.01-3.54l0.3-0.29l-0.08-0.1l5.38-8.9l8.76-9.84c4.5-3.51,8.36-4.15,11.59-1.92l2.52,3.34
		c0.04,7.12-2.95,14.41-8.95,21.89l-18.75,22.89l0.33,8.24l8.25-1.21l5.16-6.84l6.63-8.65c8.62-10.52,15.7-14.82,20.91-16.43
		l12.45-0.08c6.21,2.92,11.22,10.58,12.19,13.1l-9.59,5.91l-2.22,9.2l8.43,1.45l8.81-3.98l9.98,3.19l-1.25,10.57
		c-2.84,2.84-8.89,2.62-18.12-0.67c-7.23-2.58-13.21-5.58-17.92-8.99c-6.2-4.39-10.63-5.26-13.27-2.61l-1.07,7.46
		c3.69,7.55,7.34,15.07,10.96,22.56c4.02,8.78,6.83,16.63,8.44,23.54l1.36,7.74l3.01,10.37l8.62-0.29c2.25-2.27,1.6-9.75-1.95-22.47
		c-2.79-9.88-6.25-19.6-10.39-29.15c18.03,7.67,30.75,7.79,38.18,0.36l2.7-2.71c4.85,0.45,9.08,2.1,12.69,4.93l9.01-9.01
		c-4.69-6.55-14.18-7.01-17.16-7.26c0.64-4.77-0.52-8.65-3.5-11.62c-3.48-3.48-8.42-5.96-14.81-7.44
		c-0.26-2.29-1.55-7.81-4.25-12.31c-2.81-4.7-7.12-9.16-12.35-11.78c-7.7-3.88-17.46-1.8-23.25,0.07l1.9-9.24
		c0-2.01-0.59-5.27-1.74-9.76l-2.15-3.05c-5.07-3.77-11.05-4.81-17.95-3.11c-7.5-14.87-16.11-25.34-24.21-31.88
		c-12.46-10.06-34.65-10.24-41.48-7.48l-4.87-8.95l6.34-8.98c3.35-7.1,2.65-13.99-2.09-20.66c-3.8-5.22-9.26-9.5-16.37-12.84
		c-3.64-1.71-8.61-2.84-14.91-3.38c-7.53-0.71-11.98,0.37-13.34,3.26l2.21,8.16l3.44,0.43c8.47,0.44,14.25,1.37,17.3,2.81
		l10.15,6.74l4.54,9.67c-0.77,1.64-3.94,4.72-9.49,9.23l-11.76,2.47c-1.61-4.5-3.58-8.9-5.56-10.65c-2.88-2.55-7.05-5.38-13.42-6.19
		c-7.87-1-19.7,2.3-24.49,6.05l-1.4-9.33c-0.7-1.89-2.51-8.44-8.38-11.5l-9.17-1.69l-8.67,3.17c-2.88-4.82-8.26-8.08-16.12-9.77
		c-8.75-1.88-16.83-0.54-24.26,4.02c-3.29-7.72-9.93-12.5-19.81-14.77c-4.09-0.94-20.36-2.56-33.43,1.53l-4.74-1.27
		c-7.11-0.28-13.11,2.11-17.96,7.13c-2.19-4.74-5.83-8.78-10.92-12.12c-5.08-3.35-10.18-5.12-15.29-5.31
		c-6.75-0.25-13.13,3.12-18.78,7.58L504.2,50l-7.07,5.93c-4.36-3.56-10.52-4.79-18.47-3.71c-8.87,1.21-16.02,5.22-21.46,12.04
		c-5.72-6.14-13.32-8.79-23.64-7.15l-11.25,3.74l1.76,12.9C424.06,73.74,431.65,69.21,437.84,68.28z M627.5,99.09
		c-1.12,5.18-2.41,8.59-3.88,10.24l-9.37,1.9l-2.79-2.7l-0.36-4.84c1.81-8.4,7.67-11.71,17.56-9.97L627.5,99.09z M778.12,127.28
		c10.88-4.58,27.27-0.92,35.9,6.66c6.31,5.54,13.79,13.2,20.28,25.74c-3.46,2.61-7.82,8.08-13.06,16.38
		c-2.65-14.42-8.48-24.6-17.48-30.51c-7.56-4.97-13.89-3.56-19.01,4.23c-1.81,2.75-3.58,7.27-5.31,13.56
		c-2.18,7.31-2.28,11.62-0.29,12.92l7.97-1.65l3.48-9.43c1.07-4.38,2.22-7.48,3.42-9.31l1.25-1.14l1.94,0.78
		c5.96,3.91,10.04,10.32,12.28,19.23c1.12,4.48,1.58,8.67,1.36,12.57l-4.75,5.73c-3.72,4.86-6.4,8.67-8.05,11.44
		c-3.96-10.62-9.5-18.64-16.61-24.07c-5.89-4.51-11.11-5.3-15.64-2.39l-5.7-8.93c-6.15-9.25-12.76-18.26-19.84-27.04
		C760.9,143.27,773.51,138.35,778.12,127.28z M641.58,79.94c5.62-4.84,12.05-6.48,19.27-4.93l9.67,6.55
		c-2.03,3.38-3.83,8.67-5.39,15.86l-1.14,5.33l-1.34,6.27c-8.45-12.42-15.63-20.34-21.52-23.75L641.58,79.94z M480.52,161.85
		c-5.17,0.25-7.87-1.95-8.08-6.61c-0.31-6.47,1.81-11.65,6.36-15.52c4.21-3.4,9.81-5.27,16.81-5.6l3.42,0.12
		C495.85,152.21,489.69,161.42,480.52,161.85z M480.3,64.31c4.43-0.61,8.21,0.35,11.31,2.87c-0.76,3.86-0.65,9.45,0.35,16.75
		l0.73,5.41l0.86,6.35c-12.16-8.81-21.6-13.82-28.3-15.02l-1.4-5.18C467.48,69.03,472.96,65.3,480.3,64.31z M456.38,92.85l0.74,5.44
		c0.72,5.25,0.66,8.89-0.17,10.94l-8.18,4.98l-3.53-1.59l-1.99-4.43C442.1,99.68,446.48,94.57,456.38,92.85z"/>
	
		<linearGradient id="SVGID_00000040535897400713323660000008241017911332094891_" gradientUnits="userSpaceOnUse" x1="93.1276" y1="11.565" x2="977.7958" y2="896.2331">
		<stop  offset="0" style="stop-color:#3BB24A"/>
		<stop  offset="1" style="stop-color:#056938"/>
	</linearGradient>
	<path style="fill:url(#SVGID_00000040535897400713323660000008241017911332094891_);" d="M559.23,668.26
		c5.71,2.05,11.8,3.09,18.09,3.09h0c32,0,64.97-26.58,86.97-48.86l4.06-4.19c7.97,2.41,16.43,3.62,25.2,3.62
		c25.51,0,50.17-10.58,64.38-27.64c11.68-14.03,16.01-31.52,12.52-50.58c-2.96-16.1-11.5-19.48-18.14-19.48
		c-13.89,0-31.22,14.72-43.04,25.78c-7.22,6.75-14.11,13.86-20.78,20.74c-20.7,21.33-40.25,41.49-68.82,51.87
		c-7.31,2.67-14.32,4.02-20.81,4.02c-15.57,0-27.4-7.98-32.9-22.02c53.07-21.93,107.29-77.05,129.82-132.33
		c3.19-7.82,12.75-34.7,1.92-52.21c-4.99-8.07-13.39-12.6-24.97-13.49c-34.99-2.66-67.64,42.54-84.97,66.52l-1.7,2.35
		c-14.63,20.22-70.29,112.98-54.45,164.17C535.94,653.6,545.22,663.24,559.23,668.26z M648.14,450.99c5.33,0,10.42,1.57,15.13,4.64
		c5.78,3.79,8.85,8.5,9.4,14.43c1.39,14.93-13.97,35.49-28.8,49.74c-18.68,17.96-47.49,40.54-80.39,48.49
		c5.53-44.63,33.9-92.18,67.33-112.1C636.6,452.73,642.43,450.99,648.14,450.99z M726.96,567.82c4.49,0,7.39,3.42,8.91,6.04
		l1.4,8.97c-10.78,2.23-22.94,1.81-32.41-1.18c5.78-4.96,11.12-8.91,16.44-12.21L726.96,567.82z"/>
	
		<linearGradient id="SVGID_00000166661127224714218190000015114423199514417842_" gradientUnits="userSpaceOnUse" x1="244.7565" y1="-140.0639" x2="1129.4247" y2="744.6042">
		<stop  offset="0" style="stop-color:#3BB24A"/>
		<stop  offset="1" style="stop-color:#056938"/>
	</linearGradient>
	<path style="fill:url(#SVGID_00000166661127224714218190000015114423199514417842_);" d="M827.09,346.6v265.84l5.51-4.5
		c2.7-2.19,26.32-21.88,26.32-37.34V303.93l-6.2,5.94C841.02,320.76,827.09,335.96,827.09,346.6z"/>
	
		<linearGradient id="SVGID_00000002370532294616028390000010864941756505680803_" gradientUnits="userSpaceOnUse" x1="102.3927" y1="2.2999" x2="987.0608" y2="886.968">
		<stop  offset="0" style="stop-color:#3BB24A"/>
		<stop  offset="1" style="stop-color:#056938"/>
	</linearGradient>
	<path style="fill:url(#SVGID_00000002370532294616028390000010864941756505680803_);" d="M557.49,508.42V299.83l-5.8,5.92
		l-0.83,0.79c-16.74,15.79-25.21,28-25.21,36.28v240.31l6.61-22.02c5.36-17.82,16.7-40.02,24.65-51.84L557.49,508.42z"/>
	
		<linearGradient id="SVGID_00000099641169005946376730000004499437841941551803_" gradientUnits="userSpaceOnUse" x1="-50.0332" y1="154.7259" x2="834.6349" y2="1039.3939">
		<stop  offset="0" style="stop-color:#3BB24A"/>
		<stop  offset="1" style="stop-color:#056938"/>
	</linearGradient>
	<path style="fill:url(#SVGID_00000099641169005946376730000004499437841941551803_);" d="M316.36,692.95
		c5.08,6.77,12.96,9.27,23.27,7.26c12.42-2.44,23.64-8.21,34.09-17.56c-2.46,21.49-3.12,51.3,8.99,65.39
		c6.52,7.58,15.93,9.9,27.68,6.75c15.91-4.27,30.37-14.55,43.09-30.58c0.76,11.63,4.36,25.04,17.39,40.91
		c4.44,5.4,10.69,8.14,18.59,8.14c19.53,0,44.22-16.72,56.08-24.76l0.51-0.35c8.49-5.76,16.51-12.7,24.26-19.41l0.75-0.65
		c12.68,15.81,26.31,23.82,40.57,23.82h0.01c25.6,0,46.15-26.19,53.23-52.05c5.63-20.57,1.73-37.71-10.17-44.74l-11.22-2.93
		c-20.83,0-47.58,24.53-65.27,40.76l-10.34,9.19c-29.68,23.67-52.97,30.88-68.36,20.79c-15.46-10.13-15.62-61.61-15.08-68.19
		l0.1-1.6l-2.08-2.22h-1.49c-5.33,0-26.38,27.83-27.88,35.18c-3.1,15.23-11.57,24.32-22.68,24.33c-6.04,0-12.19-2.74-17.78-7.92
		c-14.19-13.18-15.66-46.59-6.87-63.67c4.18-8.09,4.35-10.55,3.17-12.48l-3.36-1.86c-5.89,0-19.88,19.19-21.18,21.49
		c-4.47,7.91-10.51,12.1-17.48,12.1c-12.35,0-24.83-12.97-25.68-26.7c-0.95-15.09,5.22-32.19,11.17-48.72
		c2.97-8.25,5.79-16.06,7.7-23.52c3.65-14.21,2.74-24.99-2.72-32.01c-4.64-5.99-12.28-9.03-22.72-9.03
		c-17.92,0-40.77,9.18-54.88,17.04c-29.8,16.61-49.4,51.55-57.12,76.41c-2.86,9.2-1.84,17.2,3.01,23.79
		c12.19,16.56,44.93,18.35,58.44,18.35c6.43,0,12.62-0.38,17.43-1.08c4.09-0.58,8.16-4.68,11.77-10.07
		C309.72,657.87,307.41,681,316.36,692.95z M322.59,608.84l-0.5,0.04l-10.97,0.72c-25.76,0-52.1-9.52-54.2-19.6
		c-1.35-6.51,8.08-14.67,25.87-22.4c3.82-1.66,17.26-7.07,29.81-7.07c11.63,0,17.67,4.66,18.49,14.23
		c0.88,10.28-2.5,22.4-6.54,34.07H322.59z M637.76,710.42c-8.22,2.14-16.58-1.26-25.88-10.37l6.06-2.11
		c5.9-1.21,10.98,0.1,14.98,3.47L637.76,710.42z"/>
	
		<linearGradient id="SVGID_00000131367799596119296480000010039731613465293483_" gradientUnits="userSpaceOnUse" x1="-26.4101" y1="131.1027" x2="858.258" y2="1015.7709">
		<stop  offset="0" style="stop-color:#3BB24A"/>
		<stop  offset="1" style="stop-color:#056938"/>
	</linearGradient>
	<path style="fill:url(#SVGID_00000131367799596119296480000010039731613465293483_);" d="M334.49,454.93h-0.98
		c-4.54,0-11.24,10.84-14.42,16.5l-15.91-9.99l-1.11-0.59h-0.97c-5.97,0-16.52,19.64-17.52,23.11l1.5,5.53l24.91,15.62l1.12,0.6
		h0.97c4.54,0,11.23-10.85,14.4-16.49l15.94,10l1.1,0.58h0.96c5.95,0,16.52-19.64,17.51-23.11l-1.49-5.55l-24.92-15.61
		L334.49,454.93z"/>
	
		<linearGradient id="SVGID_00000070811279830498847170000012064640051661875104_" gradientUnits="userSpaceOnUse" x1="116.3039" y1="-11.6113" x2="1000.972" y2="873.0568">
		<stop  offset="0" style="stop-color:#3BB24A"/>
		<stop  offset="1" style="stop-color:#056938"/>
	</linearGradient>
	<path style="fill:url(#SVGID_00000070811279830498847170000012064640051661875104_);" d="M611.24,801.09l-1.23,3.27l-1.88,4.75
		l5.11-0.13c116.52-2.86,187.25-103.71,203.66-196.2c3.96-22.39,2.91-46.47,1.89-69.75c-0.46-10.38-0.88-20.18-0.9-29.87
		l-0.34-152.41l-6.17,5.86c-11.71,10.87-25.68,26.07-25.65,36.73l0.47,221.98c0.17,80.08-61.09,137.52-148.98,139.7
		C625.83,765.3,618,782.52,611.24,801.09z"/>
	
		<linearGradient id="SVGID_00000049923780925296205240000008318780347906967212_" gradientUnits="userSpaceOnUse" x1="45.1461" y1="59.5465" x2="929.8142" y2="944.2147">
		<stop  offset="0" style="stop-color:#3BB24A"/>
		<stop  offset="1" style="stop-color:#056938"/>
	</linearGradient>
	<path style="fill:url(#SVGID_00000049923780925296205240000008318780347906967212_);" d="M491.76,454.92l5.55-3.61
		c0.15-0.1,14.1-10.55,12.52-15.43l-3.61-2.54l-0.58,0.03c-7.89,0.98-15.89,6.97-22.32,11.8l-3.08,2.28l-9.07,6.36
		c-13.03,9-26.51,18.31-35.39,31c-3.57,5.1-4.43,9.73-2.54,13.78c3.17,6.8,13.32,9.58,24.25,11c-5.92,5.83-12.27,11.52-19.63,17.94
		l-4.51,8.57l4.19,2.66l6.47-1.98c9.07-4.43,18.32-10.67,26.75-18.04c11.01-9.62,22.63-20.06,33.11-31.47l2.13-6.06l-3.96-2.68
		l-2.16-0.17c-5.03-0.36-20.34-1.42-23.85-6.11l-0.47-2.53C476.79,464.26,485.45,458.86,491.76,454.92z"/>
	
		<linearGradient id="SVGID_00000014625536246025862430000015906935075942053252_" gradientUnits="userSpaceOnUse" x1="-38.9437" y1="143.6364" x2="845.7244" y2="1028.3044">
		<stop  offset="0" style="stop-color:#3BB24A"/>
		<stop  offset="1" style="stop-color:#056938"/>
	</linearGradient>
	<path style="fill:url(#SVGID_00000014625536246025862430000015906935075942053252_);" d="M385.74,596.04l24.92,15.62l1.12,0.59
		l0.97,0.01c5.94,0,16.51-19.63,17.52-23.1l-1.5-5.55l-24.92-15.62l-1.11-0.59h-0.97c-5.96,0-16.52,19.65-17.51,23.12L385.74,596.04
		z"/>
</g>
</svg>
